<?xml version="1.0" encoding="UTF-8" standalone="no"?>
<svg
   width="210mm"
   height="297mm"
   viewBox="0 0 744.09448819 1052.3622047"
   id="svg2"
   version="1.1"
  <metadata
     id="metadata7">
    <rdf:RDF>
      <cc:Work
         rdf:about="">
        <dc:format>image/svg+xml</dc:format>
        <dc:type
           rdf:resource="http://purl.org/dc/dcmitype/StillImage" />
        <dc:title></dc:title>
      </cc:Work>
    </rdf:RDF>
  </metadata>
  <defs
     id="defs4" />
  <g
     id="layer1">
    <path
       style="fill:#000000"
       d="m 608.37333,530.07949 -1.41016,1.69726 -6.45898,0.375 -6.46094,0.375 0.33398,19.375 c 0.18412,10.65625 -0.14445,20.10049 -0.73046,20.98828 l -1.06641,1.61524 -11.14258,-0.36524 -11.14453,-0.36328 -0.30469,-18.125 c -0.16692,-9.96875 -0.59913,-19.39063 -0.96094,-20.9375 l -0.6582,-2.8125 h -11.7539 -11.75586 l -3.84571,3.23633 -3.8457,3.23438 v 5.92187 5.92188 l 3.2168,3.02343 3.21875,3.02344 5.84375,-0.0898 c 3.21427,-0.0488 7.89585,-0.5309 10.40234,-1.07227 l 4.55664,-0.98437 0.53125,6.70508 c 0.29206,3.6877 0.0949,7.60676 -0.43945,8.70898 l -0.97266,2.00391 -7.13672,1.43359 c -3.92572,0.7884 -10.02699,1.43359 -13.55859,1.43359 h -6.42188 l -6.50976,-3.24414 -6.50781,-3.24414 -4.41407,-5.38672 c -6.83428,-8.34034 -8.74172,-19.078 -4.9414,-27.82226 0.97337,-2.23963 3.28532,-6.06036 5.13867,-8.49024 l 3.37109,-4.41796 6.99805,-3.38477 7,-3.38477 33.11328,-0.37304 c 18.2125,-0.20483 34.31015,-0.0723 35.77344,0.29492 l 2.66015,0.66797 0.84766,6.38086 0.8457,6.38281 z m -1.20508,-19.42777 -2.8125,0.0684 c -1.54687,0.0377 -7.47245,0.0775 -13.16797,0.0879 l -10.35547,0.0176 -5.69922,-6.33789 c -3.13381,-3.48556 -6.38113,-6.33594 -7.21679,-6.33594 -0.83566,0 -3.17476,2.21954 -5.19727,4.9336 -2.0225,2.71406 -4.80078,5.54426 -6.17578,6.28906 l -2.5,1.35547 -24.64258,0.44336 -24.64258,0.44531 -1.95898,-1.43164 -1.95703,-1.43359 -0.30274,-26.58789 c -0.16657,-14.62417 0.15918,-27.41738 0.72461,-28.42774 l 1.02735,-1.83594 h 11.8125 11.81445 l 0.16797,22.1875 c 0.0923,12.20312 0.0464,24.51633 -0.10156,27.36328 -0.14791,2.84695 0.30117,5.5283 0.99804,5.95899 l 1.26758,0.7832 11.95899,-13.36523 c 6.57747,-7.35091 11.95898,-13.83499 11.95898,-14.4082 0,-0.57322 -4.64062,-6.15335 -10.3125,-12.40235 -5.67187,-6.249 -10.875,-12.16693 -11.5625,-13.15039 l -1.25,-1.78906 1.85742,-1.1582 1.85742,-1.15821 11.77344,0.49805 11.77344,0.49805 5.16601,5.07226 c 2.84164,2.78886 5.80421,5.07031 6.58399,5.07031 0.77978,0 3.29613,-2.19497 5.5918,-4.87695 l 4.17382,-4.87695 12.63477,-0.61133 c 6.94887,-0.33626 13.31041,-0.19233 14.13672,0.31836 l 1.50195,0.92773 -11.33789,13.1875 c -6.23604,7.25336 -11.33789,13.6862 -11.33789,14.29492 0,0.60873 5.34375,6.94033 11.875,14.07032 6.53125,7.12998 11.875,13.71889 11.875,14.64062 z m -88.86133,63.25796 -1.5293,1.84375 -10.72851,-0.38282 -10.72852,-0.38281 -2.94726,-5.34375 -2.94922,-5.34375 -9.56055,0.36328 -9.56054,0.36328 -2.23047,4.7461 -2.23047,4.74609 -13.39844,-0.004 c -7.37004,-10e-4 -18.00579,0.16731 -23.63281,0.37696 -5.62704,0.20965 -10.97079,-0.0736 -11.875,-0.63086 l -1.64258,-1.01367 -0.625,-20.36133 -0.625,-20.35938 h -7.5 -7.5 l -0.34375,20.9375 -0.3418,20.9375 -1.5332,0.125 c -0.84276,0.0688 -6.3125,0.0285 -12.15625,-0.0879 l -10.625,-0.21093 -10.02734,-9.91407 c -5.51436,-5.4524 -10.43624,-9.91211 -10.9375,-9.91211 -0.50126,0 -0.91016,4.14863 -0.91016,9.22071 v 9.22265 l -1.75391,1.45508 -1.7539,1.45508 -10.4336,-0.36524 -10.43359,-0.36328 -0.625,-10.625 -0.625,-10.625 -2.72461,4.375 c -4.00557,6.4311 -8.98304,10.75853 -16.02539,13.9336 l -6.25,2.8164 -9.375,-0.0117 -9.375,-0.0137 -6.57227,-2.89453 -6.57226,-2.89648 -3.89649,-4.43946 c -6.71646,-7.64961 -8.82181,-15.01842 -7.08203,-24.79296 l 1.14453,-6.42188 4.44141,-5.18945 c 2.44313,-2.85425 7.331,-6.70996 10.86328,-8.56836 l 6.42383,-3.37891 10.625,0.0508 10.625,0.0508 6.42187,3.32813 c 6.41285,3.32268 15.45313,12.40612 15.45313,15.52734 0,0.9075 0.53952,1.65039 1.19922,1.65039 h 1.19922 l 0.36328,-10.3125 0.36328,-10.3125 11.91211,-0.35546 11.91211,-0.35352 10.58789,10.82812 10.58789,10.82813 0.36914,-9.8457 c 0.20385,-5.41436 0.91937,-10.39201 1.58984,-11.0625 l 1.22071,-1.21875 36.53515,-0.35352 c 20.09442,-0.19379 37.82711,-0.051 39.40625,0.31641 l 2.8711,0.66797 -0.3711,7.77343 -0.37109,7.77539 -5.625,0.65625 c -3.09375,0.36158 -6.32812,1.09835 -7.1875,1.63672 l -1.5625,0.97852 v 18.94531 18.94336 l 1.66797,-1.83008 c 0.9175,-1.0067 5.21779,-9.70508 9.55664,-19.33008 13.311,-29.52818 16.25638,-35.35068 18.2793,-36.12695 1.07204,-0.41138 6.31708,-0.74805 11.65429,-0.74805 h 9.70313 l 1.83984,2.1875 c 1.01156,1.20312 3.57926,5.84375 5.70508,10.3125 2.12581,4.46875 7.89089,16.45814 12.8125,26.64454 l 8.94922,18.52148 z m -20.17773,-91.27546 -0.33594,27.29101 -4.11133,0.83984 c -2.26128,0.46207 -7.83258,0.54088 -12.38086,0.17579 l -8.26953,-0.66211 -9.39648,-9.81446 c -5.16786,-5.39733 -9.86218,-9.8125 -10.43164,-9.8125 -0.56946,0 -1.03516,4.19802 -1.03516,9.33008 v 9.33203 l -2.41797,1.29297 c -2.60753,1.39551 -17.36473,1.77875 -20.60547,0.53516 l -1.97656,-0.75781 v -29.24219 -29.24024 h 12.00977 12.00976 l 10.17969,10.625 c 5.59915,5.84375 10.57813,10.625 11.06445,10.625 0.48633,0 1.04836,-4.64063 1.24805,-10.3125 l 0.36328,-10.3125 10.74609,-0.35937 10.7461,-0.35742 1.46679,1.76562 1.46485,1.76563 z m -16.00977,61.67578 -1.53125,-2.85938 -1.71094,2.33985 c -2.21781,3.03304 -2.15727,4.26764 0.25,5.1914 1.07746,0.41346 2.53526,0.17373 3.24024,-0.53125 l 1.28125,-1.28125 z m -57.45124,-33.70698 -2.96875,0.74609 c -1.63269,0.40978 -17.24207,0.53131 -34.6875,0.27148 l -31.71875,-0.4707 -5,-2.64844 c -6.0782,-3.2173 -12.42986,-9.65841 -14.51758,-14.72461 l -1.54492,-3.75 -0.99219,9.90039 -0.99023,9.90235 -1.60352,1.01562 c -1.86681,1.18456 -17.34516,1.41157 -20.25,0.29688 l -1.97656,-0.75781 v -8.46289 -8.46485 l -1.76953,-1.4668 -1.76953,-1.46875 -7.29297,0.37696 -7.29297,0.3789 -0.625,10 -0.625,10 -11.40625,0.35743 -11.4043,0.35742 -0.61132,-2.3418 c -0.33669,-1.28744 -0.72611,-7.9055 -0.86329,-14.70703 -0.13719,-6.80153 -0.47016,-12.58931 -0.74218,-12.86133 -0.27202,-0.27201 -2.03901,1.33972 -3.92579,3.58203 -4.49319,5.33985 -10.32903,7.73392 -21.04687,8.63086 l -8.75,0.73242 -0.625,8.125 -0.625,8.125 -11.13672,0.36328 c -6.12477,0.20023 -11.56307,-0.081 -12.08594,-0.625 -0.52286,-0.54397 -1.30442,-13.15598 -1.73632,-28.02734 l -0.78516,-27.03906 1.98242,-1.98242 1.98242,-1.98242 20.88867,0.27148 20.89063,0.27148 4.66602,2.90039 c 2.56661,1.59583 6.07618,4.68958 7.79882,6.875 l 3.13282,3.97461 0.0137,-5.89453 0.0137,-5.89258 2.41797,-1.29492 c 1.3298,-0.71169 6.32219,-1.29297 11.0957,-1.29297 h 8.67969 l 1.33594,1.60938 c 0.7351,0.88574 1.50832,5.24512 1.71679,9.6875 l 0.37891,8.07812 h 8.75 8.75 l 0.1543,-8.125 c 0.0851,-4.46875 0.2257,-8.84919 0.3125,-9.73437 l 0.1582,-1.60938 11.5625,0.35938 11.5625,0.35937 0.68359,9.64258 c 0.37636,5.30345 1.00406,9.96109 1.39454,10.35156 0.39046,0.39048 1.40717,-0.97292 2.25976,-3.03125 1.96038,-4.73275 12.92927,-15.08789 15.98242,-15.08789 1.26695,0 2.84715,-0.54244 3.50977,-1.20507 l 1.20312,-1.20508 26.85938,-0.0899 c 14.77175,-0.0499 29.74602,-0.0719 33.27734,-0.0469 l 6.41992,0.0469 0.8125,5.40821 c 0.44605,2.97439 0.45736,6.32747 0.0254,7.45312 l -0.78515,2.04688 -11.31445,0.35937 -11.31446,0.35742 -1.33789,2.12696 c -0.736,1.17015 -1.03195,2.43289 -0.6582,2.80664 0.37373,0.37374 5.97815,1.00041 12.45508,1.39258 6.47694,0.39218 12.23184,1.16089 12.78906,1.70703 0.5572,0.54615 0.83846,3.74197 0.625,7.10351 l -0.38672,6.11328 -11.83398,0.36328 -11.83204,0.36133 -0.86328,1.40039 c -0.47544,0.76927 -0.57635,2.1525 -0.22265,3.07422 l 0.64453,1.67578 h 10.86523 10.86719 l 1.5,1.5 c 0.825,0.825 1.5,4.18967 1.5,7.47657 z m -50.56634,-36.64459 -3.06445,-3.30664 h -3.01562 c -1.65886,0 -4.49908,1.16495 -6.31055,2.58985 l -3.29297,2.59179 v 5.29883 5.30078 l 3.66797,3.51563 3.66797,3.51367 3.17187,-0.79492 c 1.74446,-0.43784 4.31301,-2.02127 5.70703,-3.51758 l 2.53516,-2.7207 v -4.58203 -4.58008 z m -72.37695,71.44535 c -0.0497,-5.51956 -3.77989,-10.89149 -9.75781,-10.96289 l -3.32813,-0.0391 -3.26757,3.88282 -3.26758,3.88281 0.77148,4.55469 0.77149,4.55468 3.08007,2.8125 c 3.80589,3.47498 6.66107,3.55318 10.80078,0.29688 2.93173,-2.3061 4.22707,-5.67069 4.19727,-8.98242 z m -44.18555,17.36343 c -0.39127,3.99222 -1.22708,7.91704 -1.85937,8.7207 -1.65804,2.10744 -17.93133,4.58232 -24.3457,3.70313 -13.0779,-1.79252 -23.64032,-11.43554 -26.39258,-24.09571 l -1.04688,-4.81836 1.14258,-5.625 c 2.22229,-10.92916 11.5328,-20.57115 22.98438,-23.80273 l 5.23046,-1.47656 5.08204,0.76367 c 2.79566,0.42032 7.4746,1.11017 10.39648,1.53125 2.92188,0.42108 6.01563,1.33299 6.875,2.02734 l 1.5625,1.26172 v 7.21485 7.21289 l -1.83789,0.70507 c -1.00997,0.38757 -3.4006,-0.11209 -5.3125,-1.10937 -1.91189,-0.99727 -5.62877,-1.81631 -8.25977,-1.82031 l -4.7832,-0.008 -3.6543,3.65235 -3.65234,3.65429 v 5.48829 5.48632 l 3.71875,3.5625 3.7168,3.5625 4.35156,-0.16406 c 2.39276,-0.09 6.45476,-1.0423 9.02734,-2.11719 2.57257,-1.07489 5.37258,-1.68753 6.22266,-1.36132 l 1.54687,0.59375 z m -18.36328,-91.40842 -0.79687,-3.16993 -3.03516,-0.76172 c -1.66921,-0.41891 -3.65956,-0.37465 -4.42383,0.0977 l -1.38867,0.85938 0.38086,4.57031 0.38086,4.57226 2.5,0.29883 c 1.375,0.165 3.55141,-0.50882 4.83789,-1.49805 l 2.33984,-1.79882 z m -42.02539,42.38285 c -0.01,29.5814 -0.32657,54.93662 -0.70508,56.3457 -0.37852,1.40906 -1.88106,3.30698 -3.33789,4.2168 l -2.64843,1.65429 -53.13282,0.5254 -53.13476,0.52343 -3.57031,-1.47851 c -1.96401,-0.81352 -4.33609,-2.96062 -5.27149,-4.76953 l -1.70117,-3.28711 0.19726,-24.34766 c 0.1084,-13.39113 0.47857,-38.31654 0.82227,-55.38867 l 0.625,-31.03906 2.42578,-1.77344 c 2.9877,-2.18222 -3.81631,-1.90137 55.69922,-2.29883 l 50.625,-0.33789 4.64063,1.09375 4.64257,1.0918 1.91993,2.74218 1.92187,2.74414 z m -19.2207,-23.54688 c -4.07281,-8.32453 -9.39768,-13.75125 -17.60156,-17.9414 l -6.21289,-3.17383 -6.22071,-0.15235 -6.2207,-0.15039 -1.60938,3.125 c -2.32107,4.50513 -2.0054,10.02096 0.83985,14.6875 1.36233,2.23437 2.97012,4.0625 3.57422,4.0625 0.6041,0 2.58228,2.13883 4.39453,4.75391 l 3.29492,4.75586 v 5.88086 5.88086 l -6.74023,7.33008 -6.73829,7.33007 0.65235,6.09766 c 0.35904,3.35277 1.21082,6.79882 1.89258,7.6582 1.8286,2.305 7.86056,1.90564 15.99023,-1.05859 l 7.1875,-2.62109 4.98438,-4.64844 c 2.74111,-2.55604 6.23287,-7.09493 7.75976,-10.08789 l 2.77539,-5.44141 0.66797,-9.73437 0.66797,-9.73243 z m -38.98828,10.34571 -2.16211,-2.38868 h -3.48438 -3.48632 l -1.98243,2.8125 c -2.68219,3.80419 -1.97683,7.04492 2.21094,10.16016 l 3.49414,2.59961 3.38086,-1.88867 3.38086,-1.88867 0.40625,-3.50782 0.40625,-3.50781 z m -12.38474,25.73632 c -0.86195,-2.0625 -3.09996,-5.15625 -4.97265,-6.875 -9.58411,-8.79634 -9.0776,-20.14642 1.30859,-29.375 l 4.21875,-3.75 0.25,-7.35546 0.24805,-7.35547 -2.33594,-1.70703 -2.33399,-1.70704 H 109.08234 95.22492 l -2.7793,1.94532 -2.77734,1.94531 0.0156,40.24219 c 0.01,22.13289 0.35603,41.50387 0.76953,43.04687 l 0.75195,2.80469 4.54297,1.30859 4.54492,1.30664 13.125,-0.98828 13.125,-0.98633 0.79102,-14.375 0.78906,-14.375 z"
       id="path4204" />
  </g>
</svg>
