<?xml version="1.0" encoding="UTF-8" standalone="no"?>
<svg
   xmlns:dc="http://purl.org/dc/elements/1.1/"
   xmlns:cc="http://creativecommons.org/ns#"
   xmlns:rdf="http://www.w3.org/1999/02/22-rdf-syntax-ns#"
   xmlns:svg="http://www.w3.org/2000/svg"
   xmlns="http://www.w3.org/2000/svg"
   xmlns:sodipodi="http://sodipodi.sourceforge.net/DTD/sodipodi-0.dtd"
   xmlns:inkscape="http://www.inkscape.org/namespaces/inkscape"
   viewBox="0 0 60 58.666668"
   height="58.666668"
   width="60"
   id="svg815"
   version="1.1"
   sodipodi:docname="phoenix-p.svg"
   inkscape:version="0.92.4 (5da689c313, 2019-01-14)">
  <sodipodi:namedview
     pagecolor="#ffffff"
     bordercolor="#666666"
     borderopacity="1"
     objecttolerance="10"
     gridtolerance="10"
     guidetolerance="10"
     inkscape:pageopacity="0"
     inkscape:pageshadow="2"
     inkscape:window-width="3840"
     inkscape:window-height="2066"
     id="namedview825"
     showgrid="false"
     inkscape:zoom="15.707386"
     inkscape:cx="69.765982"
     inkscape:cy="39.538654"
     inkscape:window-x="-11"
     inkscape:window-y="-11"
     inkscape:window-maximized="1"
     inkscape:current-layer="svg815" />
  <metadata
     id="metadata821">
    <rdf:RDF>
      <cc:Work
         rdf:about="">
        <dc:format>image/svg+xml</dc:format>
        <dc:type
           rdf:resource="http://purl.org/dc/dcmitype/StillImage" />
        <dc:title />
      </cc:Work>
    </rdf:RDF>
  </metadata>
  <defs
     id="defs819" />
  <path
     style="opacity:1;fill:#000000;fill-opacity:0.99126635;stroke:#ffffff;stroke-width:0.07559055;stroke-miterlimit:4;stroke-dasharray:none;stroke-opacity:1"
     d="M 4.6484375 0.033203125 C 2.1089952 0.033203125 0.064453125 2.0777452 0.064453125 4.6171875 L 0.064453125 54.115234 C 0.064453125 56.654677 2.1089952 58.699219 4.6484375 58.699219 L 55.480469 58.699219 C 58.019911 58.699219 60.064453 56.654677 60.064453 54.115234 L 60.064453 4.6171875 C 60.064453 2.0777452 58.019911 0.033203125 55.480469 0.033203125 L 4.6484375 0.033203125 z M 26.476562 6.4726562 L 36.949219 6.4726562 C 46.209751 6.4726562 53.664062 13.926968 53.664062 23.1875 L 53.664062 27.615234 C 53.664062 36.875765 46.209751 44.332031 36.949219 44.332031 L 32.533203 44.332031 L 32.533203 47.685547 C 32.533203 50.85985 29.977037 53.416016 26.802734 53.416016 L 13.560547 53.416016 C 10.386244 53.416016 7.8300781 50.85985 7.8300781 47.685547 L 7.8300781 12.224609 C 7.8300781 9.0503069 10.386244 6.4960938 13.560547 6.4960938 L 26.009766 6.4960938 C 26.166421 6.4917966 26.318832 6.4726562 26.476562 6.4726562 z "
     id="rect825" />
  <path
     inkscape:connector-curvature="0"
     style="opacity:1;fill:#000000;fill-opacity:1;stroke:none;stroke-width:0.073285;stroke-miterlimit:4;stroke-dasharray:none;stroke-opacity:1"
     d="m 30.240234,17.382812 a 8.4673538,8.2763615 0 0 0 -8.466796,8.275391 8.4673538,8.2763615 0 0 0 8.466796,8.275391 8.4673538,8.2763615 0 0 0 8.466797,-8.275391 8.4673538,8.2763615 0 0 0 -8.466797,-8.275391 z m 0.03125,4.078126 a 3.9751778,4.1980028 0 0 1 3.976563,4.197265 3.9751778,4.1980028 0 0 1 -3.976563,4.197266 3.9751778,4.1980028 0 0 1 -3.974609,-4.197266 3.9751778,4.1980028 0 0 1 3.974609,-4.197265 z"
     id="path859" />
  <path
     inkscape:connector-curvature="0"
     style="opacity:1;fill:#000000;fill-opacity:1;stroke:none;stroke-width:0.07555969;stroke-miterlimit:4;stroke-dasharray:none;stroke-opacity:1"
     d="M 27.753906,0.19335938 V 22.423828 a 3.9751778,4.1980028 0 0 1 2.564453,-0.998047 3.9751778,4.1980028 0 0 1 2.535157,0.964844 V 0.19335938 Z m 0,28.63671862 v 29.757813 h 5.09961 V 28.853516 a 3.9751778,4.1980028 0 0 1 -2.535157,0.96875 3.9751778,4.1980028 0 0 1 -2.564453,-0.992188 z"
     id="rect861" />
</svg>
