<svg viewBox="0 0 744.09 1052.4"><path d="M608.37 530.08l-1.41 1.697-6.46.375-6.46.375.334 19.375c.184 10.656-.145 20.1-.73 20.988l-1.067 1.616-11.143-.366-11.145-.363-.305-18.125c-.167-9.969-.599-19.391-.96-20.938l-.659-2.813h-23.51l-3.846 3.237-3.845 3.234v11.844l3.217 3.024 3.218 3.023 5.844-.09c3.214-.049 7.896-.53 10.402-1.072l4.557-.984.531 6.705c.292 3.687.095 7.606-.44 8.709l-.972 2.004-7.137 1.433c-3.925.789-10.027 1.434-13.559 1.434h-6.422l-6.51-3.244-6.507-3.244-4.414-5.387c-6.835-8.34-8.742-19.078-4.942-27.822.974-2.24 3.286-6.06 5.139-8.49l3.371-4.418 6.998-3.385 7-3.385 33.113-.373c18.212-.205 34.31-.072 35.773.295l2.66.668.848 6.38.846 6.384zm-1.205-19.428l-2.813.068c-1.546.038-7.472.078-13.168.088l-10.355.018-5.699-6.338c-3.134-3.486-6.38-6.336-7.217-6.336s-3.174 2.22-5.197 4.934c-2.022 2.714-4.8 5.544-6.176 6.289l-2.5 1.355-24.643.444-24.643.445-1.959-1.432-1.957-1.433-.302-26.588c-.167-14.624.159-27.417.724-28.428l1.028-1.836h23.627l.168 22.188c.092 12.203.046 24.516-.102 27.363-.148 2.847.301 5.528.998 5.959l1.268.783 11.959-13.365c6.577-7.35 11.959-13.835 11.959-14.408 0-.573-4.641-6.153-10.312-12.402-5.672-6.249-10.875-12.167-11.562-13.15l-1.25-1.789 3.714-2.316 23.547.996 5.166 5.072c2.842 2.789 5.805 5.07 6.584 5.07s3.297-2.195 5.592-4.877l4.174-4.877 12.635-.611c6.949-.336 13.31-.192 14.137.318l1.502.928-11.338 13.188c-6.236 7.253-11.338 13.686-11.338 14.295s5.344 6.94 11.875 14.07 11.875 13.719 11.875 14.641zm-88.861 63.258l-1.53 1.844-21.456-.766-2.948-5.344-2.949-5.343-19.12.726-4.462 9.492-13.398-.004c-7.37 0-18.006.168-23.633.377-5.627.21-10.97-.073-11.875-.63l-1.642-1.014-.625-20.361-.625-20.36h-15l-.344 20.939-.342 20.938-1.533.125c-.843.069-6.313.028-12.156-.088l-10.625-.211-10.027-9.914c-5.515-5.453-10.436-9.912-10.938-9.912s-.91 4.148-.91 9.22v9.223l-3.508 2.91-10.434-.365-10.434-.363-1.25-21.25-2.725 4.375c-4.005 6.43-8.983 10.759-16.025 13.934l-6.25 2.816-9.375-.012-9.375-.013-6.572-2.895-6.572-2.896-3.897-4.44c-6.716-7.65-8.822-15.018-7.082-24.793l1.145-6.422 4.441-5.19c2.443-2.853 7.331-6.71 10.863-8.568l6.424-3.378 21.25.101 6.422 3.328c6.413 3.323 15.453 12.406 15.453 15.527 0 .908.54 1.65 1.199 1.65h1.2l.726-20.624 11.912-.356 11.912-.353 21.176 21.656.369-9.846c.204-5.414.92-10.392 1.59-11.062l1.22-1.219 36.535-.353c20.094-.194 37.827-.051 39.406.316l2.871.668-.37 7.773-.372 7.776-5.625.656c-3.093.362-6.328 1.099-7.187 1.637l-1.563.978v37.89l1.668-1.83c.918-1.007 5.218-9.706 9.557-19.33 13.31-29.529 16.256-35.352 18.279-36.128 1.072-.411 6.317-.748 11.654-.748h9.703l1.84 2.188c1.011 1.203 3.58 5.843 5.705 10.312 2.126 4.468 7.89 16.458 12.812 26.645l8.95 18.52zm-20.178-91.275l-.336 27.291-4.111.84c-2.262.462-7.833.54-12.381.176l-8.27-.662-9.396-9.815c-5.168-5.397-9.863-9.812-10.432-9.812s-1.036 4.198-1.036 9.33v9.332l-2.418 1.293c-2.607 1.395-17.365 1.778-20.605.535l-1.976-.758v-58.482h24.02l10.18 10.625c5.6 5.844 10.578 10.625 11.064 10.625.486 0 1.048-4.64 1.248-10.312l.363-10.312 10.746-.36 10.746-.357 1.467 1.766 1.465 1.765zm-16.01 61.676l-1.531-2.86-1.711 2.34c-2.218 3.033-2.158 4.268.25 5.192 1.077.413 2.535.174 3.24-.531l1.281-1.282zm-57.451-33.707l-2.969.746c-1.633.41-17.242.531-34.688.272l-31.719-.471-5-2.649c-6.078-3.217-12.43-9.658-14.518-14.725l-1.545-3.75-.992 9.9-.99 9.903-1.604 1.016c-1.867 1.184-17.345 1.411-20.25.297l-1.976-.758v-16.928l-1.77-1.467-1.77-1.469-7.292.377-7.293.38-1.25 20-22.811.714-.612-2.342c-.336-1.287-.726-7.905-.863-14.707-.137-6.801-.47-12.589-.742-12.86-.272-.273-2.04 1.339-3.926 3.581-4.493 5.34-10.329 7.734-21.047 8.631l-8.75.733-1.25 16.25-11.137.363c-6.125.2-11.563-.081-12.086-.625-.523-.544-1.304-13.156-1.736-28.027l-.785-27.04 3.964-3.964 41.78.543 4.665 2.9c2.567 1.596 6.077 4.69 7.8 6.875l3.132 3.975.014-5.894.013-5.893 2.418-1.295c1.33-.712 6.323-1.293 11.096-1.293h8.68l1.336 1.61c.735.885 1.508 5.245 1.717 9.687l.379 8.078h17.5l.154-8.125c.085-4.469.226-8.85.313-9.734l.158-1.61 23.125.719.683 9.643c.377 5.303 1.004 9.96 1.395 10.352.39.39 1.407-.973 2.26-3.032 1.96-4.732 12.929-15.088 15.982-15.088 1.267 0 2.847-.542 3.51-1.205l1.203-1.205 26.859-.09c14.772-.05 29.746-.072 33.277-.047l6.42.047.812 5.408c.446 2.975.457 6.328.025 7.454l-.785 2.046-11.314.36-11.314.357-1.338 2.127c-.736 1.17-1.032 2.433-.658 2.807.374.374 5.978 1 12.455 1.392 6.477.393 12.232 1.161 12.79 1.707.556.547.838 3.742.624 7.104l-.387 6.113-11.834.364-11.832.36-.863 1.401c-.475.77-.576 2.153-.223 3.074l.645 1.676h21.732l1.5 1.5c.825.825 1.5 4.19 1.5 7.477zm-50.566-36.645l-3.065-3.307h-3.015c-1.659 0-4.5 1.165-6.31 2.59l-3.294 2.592v10.6l3.668 3.516 3.668 3.513 3.172-.795c1.745-.437 4.313-2.02 5.707-3.517l2.535-2.72v-9.163zm-72.377 71.445c-.05-5.52-3.78-10.891-9.758-10.963l-3.328-.04-3.268 3.884-3.267 3.883.771 4.554.772 4.555 3.08 2.812c3.806 3.475 6.661 3.554 10.8.297 2.933-2.306 4.228-5.67 4.198-8.982zm-44.186 17.363c-.391 3.992-1.227 7.917-1.86 8.72-1.658 2.108-17.93 4.583-24.346 3.704-13.078-1.793-23.64-11.436-26.393-24.096l-1.046-4.819 1.142-5.625c2.222-10.929 11.533-20.57 22.984-23.803l5.23-1.476 5.083.763c2.795.42 7.474 1.11 10.396 1.532s6.015 1.333 6.875 2.027l1.562 1.262v14.428l-1.838.705c-1.01.387-3.4-.112-5.312-1.11-1.912-.997-5.629-1.816-8.26-1.82l-4.783-.008-3.655 3.652-3.652 3.655v10.975l3.719 3.562 3.717 3.563 4.351-.164c2.393-.09 6.455-1.043 9.028-2.118 2.572-1.074 5.372-1.687 6.222-1.36l1.547.593zm-18.363-91.408l-.797-3.17-3.035-.762c-1.67-.419-3.66-.374-4.424.098l-1.389.86.381 4.57.381 4.572 2.5.299c1.375.165 3.551-.509 4.838-1.498l2.34-1.799zm-42.025 42.383c-.01 29.581-.327 54.937-.705 56.346-.379 1.41-1.881 3.307-3.338 4.217l-2.648 1.654-53.133.526-53.135.523-3.57-1.479c-1.965-.813-4.337-2.96-5.272-4.77l-1.701-3.286.197-24.348c.108-13.391.478-38.317.822-55.39l.625-31.038 2.426-1.774c2.988-2.182-3.816-1.901 55.699-2.298l50.625-.338 4.64 1.094 4.643 1.091 1.92 2.743 1.922 2.744zm-19.221-23.547c-4.073-8.324-9.398-13.751-17.602-17.941l-6.213-3.174-6.22-.152-6.221-.15-1.61 3.124c-2.32 4.506-2.005 10.021.84 14.688 1.362 2.235 2.97 4.063 3.574 4.063s2.583 2.139 4.395 4.754l3.295 4.756v11.762l-6.74 7.33-6.739 7.33.652 6.098c.36 3.352 1.211 6.798 1.893 7.658 1.829 2.305 7.86 1.905 15.99-1.059l7.188-2.62 4.984-4.65c2.741-2.555 6.233-7.094 7.76-10.087l2.775-5.442.668-9.734.668-9.732zm-38.988 10.346l-2.162-2.389h-6.97l-1.983 2.813c-2.683 3.804-1.977 7.045 2.21 10.16l3.495 2.6 6.761-3.778.407-3.508.406-3.507zm-12.385 25.736c-.862-2.062-3.1-5.156-4.973-6.875-9.584-8.796-9.077-20.146 1.309-29.375l4.219-3.75.25-7.355.248-7.356-2.336-1.707-2.334-1.707H95.222l-2.78 1.945-2.777 1.946.016 40.242c.01 22.133.356 41.504.77 43.047l.751 2.804 4.543 1.309 4.545 1.307 13.125-.989 13.125-.986.791-14.375.79-14.375z"/></svg>
